# xmcd CD database file
#
# Track frame offsets:
#	150
#	21952
#	39963
#	54616
#	67590
#	83425
#	95990
#	110322
#	123641
#	138245
#	154378
#	170062
#
# Disc length: 2453 seconds
#
# Revision: 0
# Processed by: cddbd v1.5.1PL2 Copyright (c) Steve Scherf et al.
# Submitted via: CDex 1.60beta1-cs1
#
DISCID=9b09930c
DTITLE=Vander and Vandeir - Natureza
DYEAR=2002
DGENRE=Country
TTITLE0=natureza
TTITLE1=rancho Quatro
TTITLE2=boi Tufão
TTITLE3=eu, ela e a viola
TTITLE4=justiça divina
TTITLE5=morena cabocla
TTITLE6=ninho de saudade
TTITLE7=pescador
TTITLE8=rodeio do destino
TTITLE9=São Paulo está de luto
TTITLE10=homenagem ao vovô
TTITLE11=para sempre te amarei
EXTD=YEAR: 2002
EXTT0=
EXTT1=
EXTT2=
EXTT3=
EXTT4=
EXTT5=
EXTT6=
EXTT7=
EXTT8=
EXTT9=
EXTT10=
EXTT11=
PLAYORDER=
